<svg width="17" height="16" viewBox="0 0 17 16" fill="none" xmlns="http://www.w3.org/2000/svg">
<path d="M13.8333 7.33333H13.1666V4.66667H13.8333V2.66667H15.1666V4.66667H15.8333V7.33333H15.1666V12C15.1666 12.5304 14.9559 13.0391 14.5808 13.4142C14.2057 13.7893 13.697 14 13.1666 14C12.6362 14 12.1274 13.7893 11.7524 13.4142C11.3773 13.0391 11.1666 12.5304 11.1666 12V9.33333H9.83325V12.6667H10.4999V14H1.83325V12.6667H2.49992V2.66667C2.49992 2.48986 2.57016 2.32029 2.69518 2.19526C2.82021 2.07024 2.98977 2 3.16659 2H9.16659C9.3434 2 9.51297 2.07024 9.63799 2.19526C9.76301 2.32029 9.83325 2.48986 9.83325 2.66667V8H11.1666C11.5202 8 11.8593 8.14048 12.1094 8.39052C12.3594 8.64057 12.4999 8.97971 12.4999 9.33333V12C12.4999 12.1768 12.5702 12.3464 12.6952 12.4714C12.8202 12.5964 12.9898 12.6667 13.1666 12.6667C13.3434 12.6667 13.513 12.5964 13.638 12.4714C13.763 12.3464 13.8333 12.1768 13.8333 12V7.33333ZM8.49992 12.6667V3.33333H3.83325V12.6667H8.49992ZM6.49992 7.33333H8.49992L5.83325 11.3333V8.66667H3.83325L6.49992 4.66667V7.33333Z" fill="white"/>
</svg>
