<svg width="17" height="16" viewBox="0 0 17 16" fill="none" xmlns="http://www.w3.org/2000/svg">
<path d="M8.49992 1.33337C12.1819 1.33337 15.1666 4.31804 15.1666 8.00004C15.1666 11.682 12.1819 14.6667 8.49992 14.6667C4.81792 14.6667 1.83325 11.682 1.83325 8.00004C1.83325 4.31804 4.81792 1.33337 8.49992 1.33337ZM8.49992 2.66671C7.08543 2.66671 5.72888 3.22861 4.72868 4.2288C3.72849 5.229 3.16659 6.58555 3.16659 8.00004C3.16659 9.41453 3.72849 10.7711 4.72868 11.7713C5.72888 12.7715 7.08543 13.3334 8.49992 13.3334C9.91441 13.3334 11.271 12.7715 12.2712 11.7713C13.2713 10.7711 13.8333 9.41453 13.8333 8.00004C13.8333 6.58555 13.2713 5.229 12.2712 4.2288C11.271 3.22861 9.91441 2.66671 8.49992 2.66671ZM11.0553 4.89137C11.1317 4.83774 11.2247 4.81281 11.3177 4.82098C11.4108 4.82915 11.498 4.86989 11.5639 4.93604C11.6297 5.00187 11.6701 5.0889 11.6778 5.18168C11.6855 5.27445 11.66 5.36694 11.6059 5.44271C10.1526 7.47337 9.35259 8.56137 9.20725 8.70737C9.01952 8.89472 8.76514 8.99994 8.49992 8.99994C8.2347 8.99994 7.98031 8.89472 7.79259 8.70737C7.60524 8.51965 7.50002 8.26526 7.50002 8.00004C7.50002 7.73482 7.60524 7.48044 7.79259 7.29271C8.04192 7.04404 9.12925 6.24337 11.0553 4.89137ZM12.1666 7.33337C12.3434 7.33337 12.513 7.40361 12.638 7.52864C12.763 7.65366 12.8333 7.82323 12.8333 8.00004C12.8333 8.17685 12.763 8.34642 12.638 8.47145C12.513 8.59647 12.3434 8.66671 12.1666 8.66671C11.9898 8.66671 11.8202 8.59647 11.6952 8.47145C11.5702 8.34642 11.4999 8.17685 11.4999 8.00004C11.4999 7.82323 11.5702 7.65366 11.6952 7.52864C11.8202 7.40361 11.9898 7.33337 12.1666 7.33337ZM4.83325 7.33337C5.01006 7.33337 5.17963 7.40361 5.30466 7.52864C5.42968 7.65366 5.49992 7.82323 5.49992 8.00004C5.49992 8.17685 5.42968 8.34642 5.30466 8.47145C5.17963 8.59647 5.01006 8.66671 4.83325 8.66671C4.65644 8.66671 4.48687 8.59647 4.36185 8.47145C4.23682 8.34642 4.16659 8.17685 4.16659 8.00004C4.16659 7.82323 4.23682 7.65366 4.36185 7.52864C4.48687 7.40361 4.65644 7.33337 4.83325 7.33337ZM6.37859 4.93604C6.50359 5.06122 6.57375 5.23094 6.57362 5.40785C6.5735 5.58475 6.5031 5.75437 6.37792 5.87937C6.25274 6.00438 6.08302 6.07454 5.90611 6.07441C5.7292 6.07429 5.55959 6.00389 5.43459 5.87871C5.37269 5.81672 5.32361 5.74316 5.29014 5.6622C5.25668 5.58125 5.23949 5.4945 5.23955 5.4069C5.23961 5.31931 5.25692 5.23258 5.2905 5.15167C5.32408 5.07077 5.37327 4.99727 5.43525 4.93537C5.56043 4.81037 5.73015 4.74021 5.90706 4.74034C5.99465 4.7404 6.08138 4.75771 6.16228 4.79129C6.24319 4.82487 6.31669 4.87406 6.37859 4.93604ZM8.49992 3.66671C8.67673 3.66671 8.8463 3.73695 8.97132 3.86197C9.09635 3.98699 9.16659 4.15656 9.16659 4.33337C9.16659 4.51019 9.09635 4.67975 8.97132 4.80478C8.8463 4.9298 8.67673 5.00004 8.49992 5.00004C8.32311 5.00004 8.15354 4.9298 8.02851 4.80478C7.90349 4.67975 7.83325 4.51019 7.83325 4.33337C7.83325 4.15656 7.90349 3.98699 8.02851 3.86197C8.15354 3.73695 8.32311 3.66671 8.49992 3.66671Z" fill="white"/>
</svg>
