<svg width="17" height="16" viewBox="0 0 17 16" fill="none" xmlns="http://www.w3.org/2000/svg">
<path d="M3.16659 3.33333V12.6667H13.8333V3.33333H3.16659ZM2.49992 2H14.4999C14.6767 2 14.8463 2.07024 14.9713 2.19526C15.0963 2.32029 15.1666 2.48986 15.1666 2.66667V13.3333C15.1666 13.5101 15.0963 13.6797 14.9713 13.8047C14.8463 13.9298 14.6767 14 14.4999 14H2.49992C2.32311 14 2.15354 13.9298 2.02851 13.8047C1.90349 13.6797 1.83325 13.5101 1.83325 13.3333V2.66667C1.83325 2.48986 1.90349 2.32029 2.02851 2.19526C2.15354 2.07024 2.32311 2 2.49992 2ZM10.3619 6.52867L9.16659 5.33333H12.4999V8.66667L11.3046 7.47133L8.72859 10.0473L7.31459 8.63333L5.42859 10.5187L4.48592 9.576L7.31459 6.74733L8.72859 8.162L10.3619 6.52867Z" fill="white"/>
</svg>
